<svg xmlns="http://www.w3.org/2000/svg" version="1.1" xmlns:xlink="http://www.w3.org/1999/xlink" xmlns:svgjs="http://svgjs.dev/svgjs" width="2000" height="550" viewBox="0 0 2000 550"><g transform="matrix(1,0,0,1,-1.2121212121212466,-1.8694975692125126)"><svg viewBox="0 0 396 109" data-background-color="#13472e" preserveAspectRatio="xMidYMid meet" height="550" width="2000" xmlns="http://www.w3.org/2000/svg" xmlns:xlink="http://www.w3.org/1999/xlink"><g id="tight-bounds" transform="matrix(1,0,0,1,0.2400000000000091,0.37050042735302213)"><svg viewBox="0 0 395.52 108.25899914529398" height="108.25899914529398" width="395.52"><g><svg viewBox="0 0 461.0067531088672 126.18358032662725" height="108.25899914529398" width="395.52"><g transform="matrix(1,0,0,1,65.48675310886725,3.022677737278123)"><svg viewBox="0 0 395.52 120.138224852071" height="120.138224852071" width="395.52"><g id="textblocktransform"><svg viewBox="0 0 395.52 120.138224852071" height="120.138224852071" width="395.52" id="textblock"><g><svg viewBox="0 0 395.52 120.138224852071" height="120.138224852071" width="395.52"><g transform="matrix(1,0,0,1,0,0)"><svg width="395.52" viewBox="4.6 -37.1 329.55 97" height="120.138224852071" data-palette-color="#ffffff"><svg></svg><svg></svg><g class="wordmark-text-0" data-fill-palette-color="primary" id="text-0"><path d="M4.6 0v-35h25v5.05h-19.1v9.85h17.1v5h-17.1v10.05h19.7v5.05zM56.4 0v-15c0-2.1-0.55-3.743-1.65-4.93-1.1-1.18-2.633-1.77-4.6-1.77v0c-2.3 0.067-4.107 0.917-5.42 2.55-1.32 1.633-1.98 3.65-1.98 6.05v0h-1.6c0-3.267 0.46-5.9 1.38-7.9 0.913-2 2.213-3.46 3.9-4.38 1.68-0.913 3.67-1.37 5.97-1.37v0c2.033 0 3.777 0.417 5.23 1.25 1.447 0.833 2.563 2.007 3.35 3.52 0.78 1.52 1.17 3.347 1.17 5.48v0 16.5zM75.75 0v-15c0-2.1-0.557-3.743-1.67-4.93-1.12-1.18-2.663-1.77-4.63-1.77v0c-2.267 0.067-4.05 0.917-5.35 2.55-1.3 1.633-1.95 3.65-1.95 6.05v0h-1.65c0-3.267 0.46-5.9 1.38-7.9 0.913-2 2.213-3.46 3.9-4.38 1.68-0.913 3.67-1.37 5.97-1.37v0c2.033 0 3.777 0.417 5.23 1.25 1.447 0.833 2.563 2.007 3.35 3.52 0.78 1.52 1.17 3.347 1.17 5.48v0 16.5zM37.05 0v-26.55h5.7v26.55zM104.5-26.75v0c2.533 0 4.75 0.567 6.65 1.7 1.9 1.133 3.383 2.717 4.45 4.75 1.067 2.033 1.6 4.4 1.6 7.1v0c0 2.633-0.523 4.957-1.57 6.97-1.053 2.02-2.52 3.597-4.4 4.73-1.887 1.133-4.097 1.7-6.63 1.7v0c-2.433 0-4.507-0.533-6.22-1.6-1.72-1.067-3.03-2.61-3.93-4.63-0.9-2.013-1.35-4.403-1.35-7.17v0c0-2.867 0.45-5.31 1.35-7.33 0.9-2.013 2.21-3.553 3.93-4.62 1.713-1.067 3.753-1.6 6.12-1.6zM103.3-22.2v0c-1.567 0-2.967 0.383-4.2 1.15-1.233 0.767-2.19 1.807-2.87 3.12-0.687 1.32-1.03 2.847-1.03 4.58v0c0 1.733 0.343 3.277 1.03 4.63 0.68 1.347 1.637 2.393 2.87 3.14 1.233 0.753 2.633 1.13 4.2 1.13v0c1.6 0 3.01-0.383 4.23-1.15 1.213-0.767 2.163-1.817 2.85-3.15 0.68-1.333 1.02-2.867 1.02-4.6v0c0-1.7-0.34-3.217-1.02-4.55-0.687-1.333-1.637-2.383-2.85-3.15-1.22-0.767-2.63-1.15-4.23-1.15zM89.45 9.7v-36.25h5.75v36.25zM123.45 0v-37.1h5.75v37.1zM149.35-26.75v0c2.733 0 5.143 0.567 7.23 1.7 2.08 1.133 3.703 2.707 4.87 4.72 1.167 2.02 1.75 4.363 1.75 7.03v0c0 2.667-0.583 5.017-1.75 7.05-1.167 2.033-2.79 3.617-4.87 4.75-2.087 1.133-4.497 1.7-7.23 1.7v0c-2.733 0-5.15-0.567-7.25-1.7-2.1-1.133-3.733-2.717-4.9-4.75-1.167-2.033-1.75-4.383-1.75-7.05v0c0-2.667 0.583-5.01 1.75-7.03 1.167-2.013 2.8-3.587 4.9-4.72 2.1-1.133 4.517-1.7 7.25-1.7zM149.35-22.1v0c-1.6 0-3.017 0.373-4.25 1.12-1.233 0.753-2.19 1.797-2.87 3.13-0.687 1.333-1.03 2.867-1.03 4.6v0c0 1.767 0.343 3.317 1.03 4.65 0.68 1.333 1.637 2.373 2.87 3.12 1.233 0.753 2.65 1.13 4.25 1.13v0c1.6 0 3.01-0.377 4.23-1.13 1.213-0.747 2.163-1.787 2.85-3.12 0.68-1.333 1.02-2.883 1.02-4.65v0c0-1.733-0.34-3.267-1.02-4.6-0.687-1.333-1.637-2.377-2.85-3.13-1.22-0.747-2.63-1.12-4.23-1.12zM191.75-26.55l-12.1 30.3c-0.833 2.033-1.983 3.577-3.45 4.63-1.467 1.047-3.2 1.57-5.2 1.57v0c-1.2 0-2.29-0.183-3.27-0.55-0.987-0.367-1.947-0.917-2.88-1.65v0l2.45-4.25c1.2 0.867 2.35 1.3 3.45 1.3v0c0.867 0 1.65-0.25 2.35-0.75 0.7-0.5 1.267-1.267 1.7-2.3v0l0.9-2.1-11-26.2h5.95l7.95 20.5 7.4-20.5zM197.9-15.2h16.25c-0.067-1.5-0.407-2.777-1.02-3.83-0.62-1.047-1.48-1.863-2.58-2.45-1.1-0.58-2.367-0.87-3.8-0.87v0c-1.6 0-2.99 0.367-4.17 1.1-1.187 0.733-2.113 1.757-2.78 3.07-0.667 1.32-1 2.863-1 4.63v0c0 1.9 0.36 3.55 1.08 4.95 0.713 1.4 1.713 2.483 3 3.25 1.28 0.767 2.753 1.15 4.42 1.15v0c2.967 0 5.467-1.05 7.5-3.15v0l3.05 3.05c-1.3 1.433-2.883 2.54-4.75 3.32-1.867 0.787-3.95 1.18-6.25 1.18v0c-2.733 0-5.117-0.567-7.15-1.7-2.033-1.133-3.617-2.71-4.75-4.73-1.133-2.013-1.7-4.353-1.7-7.02v0c0-2.667 0.567-5.01 1.7-7.03 1.133-2.013 2.717-3.587 4.75-4.72 2.033-1.133 4.367-1.717 7-1.75v0c3.133 0 5.65 0.64 7.55 1.92 1.9 1.287 3.25 3.097 4.05 5.43 0.8 2.333 1.083 5.1 0.85 8.3v0h-21.25zM227.3-15.2h16.25c-0.067-1.5-0.407-2.777-1.02-3.83-0.62-1.047-1.48-1.863-2.58-2.45-1.1-0.58-2.367-0.87-3.8-0.87v0c-1.6 0-2.99 0.367-4.17 1.1-1.187 0.733-2.113 1.757-2.78 3.07-0.667 1.32-1 2.863-1 4.63v0c0 1.9 0.36 3.55 1.08 4.95 0.713 1.4 1.713 2.483 3 3.25 1.28 0.767 2.753 1.15 4.42 1.15v0c2.967 0 5.467-1.05 7.5-3.15v0l3.05 3.05c-1.3 1.433-2.883 2.54-4.75 3.32-1.867 0.787-3.95 1.18-6.25 1.18v0c-2.733 0-5.117-0.567-7.15-1.7-2.033-1.133-3.617-2.71-4.75-4.73-1.133-2.013-1.7-4.353-1.7-7.02v0c0-2.667 0.567-5.01 1.7-7.03 1.133-2.013 2.717-3.587 4.75-4.72 2.033-1.133 4.367-1.717 7-1.75v0c3.133 0 5.65 0.64 7.55 1.92 1.9 1.287 3.25 3.097 4.05 5.43 0.8 2.333 1.083 5.1 0.85 8.3v0h-21.25z" fill="#ffffff" fill-rule="nonzero" stroke="none" stroke-width="1" stroke-linecap="butt" stroke-linejoin="miter" stroke-miterlimit="10" stroke-dasharray="" stroke-dashoffset="0" font-family="none" font-weight="none" font-size="none" text-anchor="none" style="mix-blend-mode: normal" data-fill-palette-color="primary" opacity="1"></path><path transform="translate(0,50.05)" d="M4.6 0v-35h6.85l12.1 23.75 12-23.75h6.85v35h-5.45l-0.05-26.75-11.5 23.1h-3.75l-11.6-23.1v26.75zM67.9-11.85h-7.95c-1.867 0-3.25 0.283-4.15 0.85-0.9 0.567-1.35 1.5-1.35 2.8v0c0 1.233 0.46 2.217 1.38 2.95 0.913 0.733 2.17 1.1 3.77 1.1v0c1.433 0 2.717-0.25 3.85-0.75 1.133-0.5 2.033-1.177 2.7-2.03 0.667-0.847 1.017-1.803 1.05-2.87v0l1.1 4.85c-0.833 1.733-2.1 3.033-3.8 3.9-1.7 0.867-3.733 1.3-6.1 1.3v0c-1.9 0-3.55-0.367-4.95-1.1-1.4-0.733-2.483-1.727-3.25-2.98-0.767-1.247-1.15-2.637-1.15-4.17v0c0-2.4 0.873-4.317 2.62-5.75 1.753-1.433 4.23-2.167 7.43-2.2v0h8.8zM67.2 0l-0.05-16.85c0-1.733-0.533-3.083-1.6-4.05-1.067-0.967-2.65-1.45-4.75-1.45v0c-1.267 0-2.56 0.233-3.88 0.7-1.313 0.467-2.637 1.15-3.97 2.05v0l-2.35-3.7c1.233-0.767 2.4-1.4 3.5-1.9 1.1-0.5 2.277-0.883 3.53-1.15 1.247-0.267 2.72-0.4 4.42-0.4v0c3.433 0 6.073 0.823 7.92 2.47 1.853 1.653 2.797 3.93 2.83 6.83v0l0.05 17.45zM100.25 0v-15c0-2.067-0.567-3.693-1.7-4.88-1.133-1.18-2.7-1.77-4.7-1.77v0c-2.367 0.033-4.223 0.867-5.57 2.5-1.353 1.633-2.03 3.667-2.03 6.1v0h-1.6c0-3.3 0.467-5.95 1.4-7.95 0.933-2 2.26-3.46 3.98-4.38 1.713-0.913 3.737-1.37 6.07-1.37v0c2.067 0 3.84 0.417 5.32 1.25 1.487 0.833 2.623 2.007 3.41 3.52 0.78 1.52 1.17 3.347 1.17 5.48v0 16.5zM80.55 0v-26.55h5.75v26.55zM130.35-11.85h-7.95c-1.867 0-3.25 0.283-4.15 0.85-0.9 0.567-1.35 1.5-1.35 2.8v0c0 1.233 0.457 2.217 1.37 2.95 0.92 0.733 2.18 1.1 3.78 1.1v0c1.433 0 2.717-0.25 3.85-0.75 1.133-0.5 2.033-1.177 2.7-2.03 0.667-0.847 1.017-1.803 1.05-2.87v0l1.1 4.85c-0.833 1.733-2.1 3.033-3.8 3.9-1.7 0.867-3.733 1.3-6.1 1.3v0c-1.9 0-3.55-0.367-4.95-1.1-1.4-0.733-2.483-1.727-3.25-2.98-0.767-1.247-1.15-2.637-1.15-4.17v0c0-2.4 0.873-4.317 2.62-5.75 1.753-1.433 4.23-2.167 7.43-2.2v0h8.8zM129.65 0l-0.05-16.85c0-1.733-0.533-3.083-1.6-4.05-1.067-0.967-2.65-1.45-4.75-1.45v0c-1.267 0-2.56 0.233-3.88 0.7-1.313 0.467-2.637 1.15-3.97 2.05v0l-2.35-3.7c1.233-0.767 2.4-1.4 3.5-1.9 1.1-0.5 2.273-0.883 3.52-1.15 1.253-0.267 2.73-0.4 4.43-0.4v0c3.433 0 6.073 0.823 7.92 2.47 1.853 1.653 2.797 3.93 2.83 6.83v0l0.05 17.45zM167-26.55v23.9c0 2.567-0.567 4.783-1.7 6.65-1.133 1.867-2.733 3.31-4.8 4.33-2.067 1.013-4.5 1.52-7.3 1.52v0c-2.067 0-4.017-0.307-5.85-0.92-1.833-0.62-3.567-1.48-5.2-2.58v0l2.45-3.95c1.267 0.933 2.567 1.66 3.9 2.18 1.333 0.513 2.817 0.77 4.45 0.77v0c1.7 0 3.177-0.323 4.43-0.97 1.247-0.653 2.213-1.563 2.9-2.73 0.68-1.167 1.02-2.55 1.02-4.15v0-24.05zM152.3-26.75v0c2.333-0.033 4.327 0.457 5.98 1.47 1.647 1.02 2.903 2.48 3.77 4.38 0.867 1.9 1.283 4.183 1.25 6.85v0c0.033 2.667-0.377 4.957-1.23 6.87-0.847 1.92-2.077 3.387-3.69 4.4-1.62 1.02-3.58 1.53-5.88 1.53v0c-2.4 0-4.5-0.543-6.3-1.63-1.8-1.08-3.2-2.587-4.2-4.52-1-1.933-1.5-4.167-1.5-6.7v0c0-2.5 0.49-4.693 1.47-6.58 0.987-1.88 2.373-3.363 4.16-4.45 1.78-1.08 3.837-1.62 6.17-1.62zM153.65-22.35v0c-1.5 0-2.833 0.357-4 1.07-1.167 0.72-2.073 1.713-2.72 2.98-0.653 1.267-0.997 2.717-1.03 4.35v0c0.033 1.633 0.377 3.083 1.03 4.35 0.647 1.267 1.547 2.257 2.7 2.97 1.147 0.72 2.487 1.08 4.02 1.08v0c1.5 0 2.827-0.36 3.98-1.08 1.147-0.713 2.043-1.703 2.69-2.97 0.653-1.267 0.98-2.717 0.98-4.35v0c0-1.667-0.327-3.123-0.98-4.37-0.647-1.253-1.543-2.24-2.69-2.96-1.153-0.713-2.48-1.07-3.98-1.07zM177.15-15.2h16.25c-0.067-1.5-0.407-2.777-1.02-3.83-0.62-1.047-1.48-1.863-2.58-2.45-1.1-0.58-2.367-0.87-3.8-0.87v0c-1.6 0-2.993 0.367-4.18 1.1-1.18 0.733-2.103 1.757-2.77 3.07-0.667 1.32-1 2.863-1 4.63v0c0 1.9 0.36 3.55 1.08 4.95 0.713 1.4 1.713 2.483 3 3.25 1.28 0.767 2.753 1.15 4.42 1.15v0c2.967 0 5.467-1.05 7.5-3.15v0l3.05 3.05c-1.3 1.433-2.883 2.54-4.75 3.32-1.867 0.787-3.95 1.18-6.25 1.18v0c-2.733 0-5.117-0.567-7.15-1.7-2.033-1.133-3.617-2.71-4.75-4.73-1.133-2.013-1.7-4.353-1.7-7.02v0c0-2.667 0.567-5.01 1.7-7.03 1.133-2.013 2.717-3.587 4.75-4.72 2.033-1.133 4.367-1.717 7-1.75v0c3.133 0 5.65 0.64 7.55 1.92 1.9 1.287 3.25 3.097 4.05 5.43 0.8 2.333 1.083 5.1 0.85 8.3v0h-21.25zM223.75 0v-15c0-2.1-0.55-3.743-1.65-4.93-1.1-1.18-2.633-1.77-4.6-1.77v0c-2.3 0.067-4.107 0.917-5.42 2.55-1.32 1.633-1.98 3.65-1.98 6.05v0h-1.6c0-3.267 0.46-5.9 1.38-7.9 0.913-2 2.213-3.46 3.9-4.38 1.68-0.913 3.67-1.37 5.97-1.37v0c2.033 0 3.777 0.417 5.23 1.25 1.447 0.833 2.563 2.007 3.35 3.52 0.78 1.52 1.17 3.347 1.17 5.48v0 16.5zM243.1 0v-15c0-2.1-0.557-3.743-1.67-4.93-1.12-1.18-2.663-1.77-4.63-1.77v0c-2.267 0.067-4.05 0.917-5.35 2.55-1.3 1.633-1.95 3.65-1.95 6.05v0h-1.65c0-3.267 0.46-5.9 1.38-7.9 0.913-2 2.213-3.46 3.9-4.38 1.68-0.913 3.67-1.37 5.97-1.37v0c2.033 0 3.777 0.417 5.23 1.25 1.447 0.833 2.563 2.007 3.35 3.52 0.78 1.52 1.17 3.347 1.17 5.48v0 16.5zM204.4 0v-26.55h5.7v26.55zM258.7-15.2h16.25c-0.067-1.5-0.407-2.777-1.02-3.83-0.62-1.047-1.48-1.863-2.58-2.45-1.1-0.58-2.367-0.87-3.8-0.87v0c-1.6 0-2.99 0.367-4.17 1.1-1.187 0.733-2.113 1.757-2.78 3.07-0.667 1.32-1 2.863-1 4.63v0c0 1.9 0.36 3.55 1.08 4.95 0.713 1.4 1.713 2.483 3 3.25 1.28 0.767 2.753 1.15 4.42 1.15v0c2.967 0 5.467-1.05 7.5-3.15v0l3.05 3.05c-1.3 1.433-2.883 2.54-4.75 3.32-1.867 0.787-3.95 1.18-6.25 1.18v0c-2.733 0-5.117-0.567-7.15-1.7-2.033-1.133-3.617-2.71-4.75-4.73-1.133-2.013-1.7-4.353-1.7-7.02v0c0-2.667 0.567-5.01 1.7-7.03 1.133-2.013 2.717-3.587 4.75-4.72 2.033-1.133 4.367-1.717 7-1.75v0c3.133 0 5.65 0.64 7.55 1.92 1.9 1.287 3.25 3.097 4.05 5.43 0.8 2.333 1.083 5.1 0.85 8.3v0h-21.25zM305.65 0v-15c0-2.067-0.567-3.693-1.7-4.88-1.133-1.18-2.7-1.77-4.7-1.77v0c-2.367 0.033-4.223 0.867-5.57 2.5-1.353 1.633-2.03 3.667-2.03 6.1v0h-1.6c0-3.3 0.467-5.95 1.4-7.95 0.933-2 2.26-3.46 3.98-4.38 1.713-0.913 3.737-1.37 6.07-1.37v0c2.067 0 3.84 0.417 5.32 1.25 1.487 0.833 2.62 2.007 3.4 3.52 0.787 1.52 1.18 3.347 1.18 5.48v0 16.5zM285.95 0v-26.55h5.75v26.55zM325.85-32.85v24.45c0 1.433 0.25 2.407 0.75 2.92 0.5 0.52 1.2 0.78 2.1 0.78v0c0.6 0 1.223-0.1 1.87-0.3 0.653-0.2 1.363-0.5 2.13-0.9v0l1.45 4.15c-1.033 0.633-2.1 1.123-3.2 1.47-1.1 0.353-2.217 0.53-3.35 0.53v0c-1.333 0-2.567-0.26-3.7-0.78-1.133-0.513-2.043-1.337-2.73-2.47-0.68-1.133-1.02-2.6-1.02-4.4v0-25.45zM316.4-21.5v-4.1h17.3v4.1z" fill="#ffffff" fill-rule="nonzero" stroke="none" stroke-width="1" stroke-linecap="butt" stroke-linejoin="miter" stroke-miterlimit="10" stroke-dasharray="" stroke-dashoffset="0" font-family="none" font-weight="none" font-size="none" text-anchor="none" style="mix-blend-mode: normal" data-fill-palette-color="primary" opacity="1"></path></g></svg></g></svg></g></svg></g></svg></g><g><svg viewBox="0 0 52.155879868339255 126.18358032662725" height="126.18358032662725" width="52.155879868339255"><g><svg xmlns="http://www.w3.org/2000/svg" xmlns:xlink="http://www.w3.org/1999/xlink" version="1.1" x="0" y="0" viewBox="31.4 4.999999999999998 37.199999999999996 90" enable-background="new 0 0 100 100" xml:space="preserve" height="126.18358032662725" width="52.155879868339255" class="icon-icon-0" data-fill-palette-color="accent" id="icon-0"></svg></g></svg></g></svg></g><defs></defs><mask id="4216deda-0534-4795-b8ae-a789bcd92807"><g id="SvgjsG8603"><svg viewBox="0 0 395.52 108.25899914529398" height="108.25899914529398" width="395.52"><g><svg viewBox="0 0 461.0067531088672 126.18358032662725" height="108.25899914529398" width="395.52"><g transform="matrix(1,0,0,1,65.48675310886725,3.022677737278123)"><svg viewBox="0 0 395.52 120.138224852071" height="120.138224852071" width="395.52"><g id="SvgjsG8602"><svg viewBox="0 0 395.52 120.138224852071" height="120.138224852071" width="395.52" id="SvgjsSvg8601"><g><svg viewBox="0 0 395.52 120.138224852071" height="120.138224852071" width="395.52"><g transform="matrix(1,0,0,1,0,0)"><svg width="395.52" viewBox="4.6 -37.1 329.55 97" height="120.138224852071" data-palette-color="#ffffff"><svg></svg><svg></svg><g class="wordmark-text-0" data-fill-palette-color="primary" id="SvgjsG8600"><path d="M4.6 0v-35h25v5.05h-19.1v9.85h17.1v5h-17.1v10.05h19.7v5.05zM56.4 0v-15c0-2.1-0.55-3.743-1.65-4.93-1.1-1.18-2.633-1.77-4.6-1.77v0c-2.3 0.067-4.107 0.917-5.42 2.55-1.32 1.633-1.98 3.65-1.98 6.05v0h-1.6c0-3.267 0.46-5.9 1.38-7.9 0.913-2 2.213-3.46 3.9-4.38 1.68-0.913 3.67-1.37 5.97-1.37v0c2.033 0 3.777 0.417 5.23 1.25 1.447 0.833 2.563 2.007 3.35 3.52 0.78 1.52 1.17 3.347 1.17 5.48v0 16.5zM75.75 0v-15c0-2.1-0.557-3.743-1.67-4.93-1.12-1.18-2.663-1.77-4.63-1.77v0c-2.267 0.067-4.05 0.917-5.35 2.55-1.3 1.633-1.95 3.65-1.95 6.05v0h-1.65c0-3.267 0.46-5.9 1.38-7.9 0.913-2 2.213-3.46 3.9-4.38 1.68-0.913 3.67-1.37 5.97-1.37v0c2.033 0 3.777 0.417 5.23 1.25 1.447 0.833 2.563 2.007 3.35 3.52 0.78 1.52 1.17 3.347 1.17 5.48v0 16.5zM37.05 0v-26.55h5.7v26.55zM104.5-26.75v0c2.533 0 4.75 0.567 6.65 1.7 1.9 1.133 3.383 2.717 4.45 4.75 1.067 2.033 1.6 4.4 1.6 7.1v0c0 2.633-0.523 4.957-1.57 6.97-1.053 2.02-2.52 3.597-4.4 4.73-1.887 1.133-4.097 1.7-6.63 1.7v0c-2.433 0-4.507-0.533-6.22-1.6-1.72-1.067-3.03-2.61-3.93-4.63-0.9-2.013-1.35-4.403-1.35-7.17v0c0-2.867 0.45-5.31 1.35-7.33 0.9-2.013 2.21-3.553 3.93-4.62 1.713-1.067 3.753-1.6 6.12-1.6zM103.3-22.2v0c-1.567 0-2.967 0.383-4.2 1.15-1.233 0.767-2.19 1.807-2.87 3.12-0.687 1.32-1.03 2.847-1.03 4.58v0c0 1.733 0.343 3.277 1.03 4.63 0.68 1.347 1.637 2.393 2.87 3.14 1.233 0.753 2.633 1.13 4.2 1.13v0c1.6 0 3.01-0.383 4.23-1.15 1.213-0.767 2.163-1.817 2.85-3.15 0.68-1.333 1.02-2.867 1.02-4.6v0c0-1.7-0.34-3.217-1.02-4.55-0.687-1.333-1.637-2.383-2.85-3.15-1.22-0.767-2.63-1.15-4.23-1.15zM89.45 9.7v-36.25h5.75v36.25zM123.45 0v-37.1h5.75v37.1zM149.35-26.75v0c2.733 0 5.143 0.567 7.23 1.7 2.08 1.133 3.703 2.707 4.87 4.72 1.167 2.02 1.75 4.363 1.75 7.03v0c0 2.667-0.583 5.017-1.75 7.05-1.167 2.033-2.79 3.617-4.87 4.75-2.087 1.133-4.497 1.7-7.23 1.7v0c-2.733 0-5.15-0.567-7.25-1.7-2.1-1.133-3.733-2.717-4.9-4.75-1.167-2.033-1.75-4.383-1.75-7.05v0c0-2.667 0.583-5.01 1.75-7.03 1.167-2.013 2.8-3.587 4.9-4.72 2.1-1.133 4.517-1.7 7.25-1.7zM149.35-22.1v0c-1.6 0-3.017 0.373-4.25 1.12-1.233 0.753-2.19 1.797-2.87 3.13-0.687 1.333-1.03 2.867-1.03 4.6v0c0 1.767 0.343 3.317 1.03 4.65 0.68 1.333 1.637 2.373 2.87 3.12 1.233 0.753 2.65 1.13 4.25 1.13v0c1.6 0 3.01-0.377 4.23-1.13 1.213-0.747 2.163-1.787 2.85-3.12 0.68-1.333 1.02-2.883 1.02-4.65v0c0-1.733-0.34-3.267-1.02-4.6-0.687-1.333-1.637-2.377-2.85-3.13-1.22-0.747-2.63-1.12-4.23-1.12zM191.75-26.55l-12.1 30.3c-0.833 2.033-1.983 3.577-3.45 4.63-1.467 1.047-3.2 1.57-5.2 1.57v0c-1.2 0-2.29-0.183-3.27-0.55-0.987-0.367-1.947-0.917-2.88-1.65v0l2.45-4.25c1.2 0.867 2.35 1.3 3.45 1.3v0c0.867 0 1.65-0.25 2.35-0.75 0.7-0.5 1.267-1.267 1.7-2.3v0l0.9-2.1-11-26.2h5.95l7.95 20.5 7.4-20.5zM197.9-15.2h16.25c-0.067-1.5-0.407-2.777-1.02-3.83-0.62-1.047-1.48-1.863-2.58-2.45-1.1-0.58-2.367-0.87-3.8-0.87v0c-1.6 0-2.99 0.367-4.17 1.1-1.187 0.733-2.113 1.757-2.78 3.07-0.667 1.32-1 2.863-1 4.63v0c0 1.9 0.36 3.55 1.08 4.95 0.713 1.4 1.713 2.483 3 3.25 1.28 0.767 2.753 1.15 4.42 1.15v0c2.967 0 5.467-1.05 7.5-3.15v0l3.05 3.05c-1.3 1.433-2.883 2.54-4.75 3.32-1.867 0.787-3.95 1.18-6.25 1.18v0c-2.733 0-5.117-0.567-7.15-1.7-2.033-1.133-3.617-2.71-4.75-4.73-1.133-2.013-1.7-4.353-1.7-7.02v0c0-2.667 0.567-5.01 1.7-7.03 1.133-2.013 2.717-3.587 4.75-4.72 2.033-1.133 4.367-1.717 7-1.75v0c3.133 0 5.65 0.64 7.55 1.92 1.9 1.287 3.25 3.097 4.05 5.43 0.8 2.333 1.083 5.1 0.85 8.3v0h-21.25zM227.3-15.2h16.25c-0.067-1.5-0.407-2.777-1.02-3.83-0.62-1.047-1.48-1.863-2.58-2.45-1.1-0.58-2.367-0.87-3.8-0.87v0c-1.6 0-2.99 0.367-4.17 1.1-1.187 0.733-2.113 1.757-2.78 3.07-0.667 1.32-1 2.863-1 4.63v0c0 1.9 0.36 3.55 1.08 4.95 0.713 1.4 1.713 2.483 3 3.25 1.28 0.767 2.753 1.15 4.42 1.15v0c2.967 0 5.467-1.05 7.5-3.15v0l3.05 3.05c-1.3 1.433-2.883 2.54-4.75 3.32-1.867 0.787-3.95 1.18-6.25 1.18v0c-2.733 0-5.117-0.567-7.15-1.7-2.033-1.133-3.617-2.71-4.75-4.73-1.133-2.013-1.7-4.353-1.7-7.02v0c0-2.667 0.567-5.01 1.7-7.03 1.133-2.013 2.717-3.587 4.75-4.72 2.033-1.133 4.367-1.717 7-1.75v0c3.133 0 5.65 0.64 7.55 1.92 1.9 1.287 3.25 3.097 4.05 5.43 0.8 2.333 1.083 5.1 0.85 8.3v0h-21.25z" fill="black" fill-rule="nonzero" stroke="none" stroke-width="1" stroke-linecap="butt" stroke-linejoin="miter" stroke-miterlimit="10" stroke-dasharray="" stroke-dashoffset="0" font-family="none" font-weight="none" font-size="none" text-anchor="none" style="mix-blend-mode: normal" opacity="1"></path><path transform="translate(0,50.05)" d="M4.6 0v-35h6.85l12.1 23.75 12-23.75h6.85v35h-5.45l-0.05-26.75-11.5 23.1h-3.75l-11.6-23.1v26.75zM67.9-11.85h-7.95c-1.867 0-3.25 0.283-4.15 0.85-0.9 0.567-1.35 1.5-1.35 2.8v0c0 1.233 0.46 2.217 1.38 2.95 0.913 0.733 2.17 1.1 3.77 1.1v0c1.433 0 2.717-0.25 3.85-0.75 1.133-0.5 2.033-1.177 2.7-2.03 0.667-0.847 1.017-1.803 1.05-2.87v0l1.1 4.85c-0.833 1.733-2.1 3.033-3.8 3.9-1.7 0.867-3.733 1.3-6.1 1.3v0c-1.9 0-3.55-0.367-4.95-1.1-1.4-0.733-2.483-1.727-3.25-2.98-0.767-1.247-1.15-2.637-1.15-4.17v0c0-2.4 0.873-4.317 2.62-5.75 1.753-1.433 4.23-2.167 7.43-2.2v0h8.8zM67.2 0l-0.05-16.85c0-1.733-0.533-3.083-1.6-4.05-1.067-0.967-2.65-1.45-4.75-1.45v0c-1.267 0-2.56 0.233-3.88 0.7-1.313 0.467-2.637 1.15-3.97 2.05v0l-2.35-3.7c1.233-0.767 2.4-1.4 3.5-1.9 1.1-0.5 2.277-0.883 3.53-1.15 1.247-0.267 2.72-0.4 4.42-0.4v0c3.433 0 6.073 0.823 7.92 2.47 1.853 1.653 2.797 3.93 2.83 6.83v0l0.05 17.45zM100.25 0v-15c0-2.067-0.567-3.693-1.7-4.88-1.133-1.18-2.7-1.77-4.7-1.77v0c-2.367 0.033-4.223 0.867-5.57 2.5-1.353 1.633-2.03 3.667-2.03 6.1v0h-1.6c0-3.3 0.467-5.95 1.4-7.95 0.933-2 2.26-3.46 3.98-4.38 1.713-0.913 3.737-1.37 6.07-1.37v0c2.067 0 3.84 0.417 5.32 1.25 1.487 0.833 2.623 2.007 3.41 3.52 0.78 1.52 1.17 3.347 1.17 5.48v0 16.5zM80.55 0v-26.55h5.75v26.55zM130.35-11.85h-7.95c-1.867 0-3.25 0.283-4.15 0.85-0.9 0.567-1.35 1.5-1.35 2.8v0c0 1.233 0.457 2.217 1.37 2.95 0.92 0.733 2.18 1.1 3.78 1.1v0c1.433 0 2.717-0.25 3.85-0.75 1.133-0.5 2.033-1.177 2.7-2.03 0.667-0.847 1.017-1.803 1.05-2.87v0l1.1 4.85c-0.833 1.733-2.1 3.033-3.8 3.9-1.7 0.867-3.733 1.3-6.1 1.3v0c-1.9 0-3.55-0.367-4.95-1.1-1.4-0.733-2.483-1.727-3.25-2.98-0.767-1.247-1.15-2.637-1.15-4.17v0c0-2.4 0.873-4.317 2.62-5.75 1.753-1.433 4.23-2.167 7.43-2.2v0h8.8zM129.65 0l-0.05-16.85c0-1.733-0.533-3.083-1.6-4.05-1.067-0.967-2.65-1.45-4.75-1.45v0c-1.267 0-2.56 0.233-3.88 0.7-1.313 0.467-2.637 1.15-3.97 2.05v0l-2.35-3.7c1.233-0.767 2.4-1.4 3.5-1.9 1.1-0.5 2.273-0.883 3.52-1.15 1.253-0.267 2.73-0.4 4.43-0.4v0c3.433 0 6.073 0.823 7.92 2.47 1.853 1.653 2.797 3.93 2.83 6.83v0l0.05 17.45zM167-26.55v23.9c0 2.567-0.567 4.783-1.7 6.65-1.133 1.867-2.733 3.31-4.8 4.33-2.067 1.013-4.5 1.52-7.3 1.52v0c-2.067 0-4.017-0.307-5.85-0.92-1.833-0.62-3.567-1.48-5.2-2.58v0l2.45-3.95c1.267 0.933 2.567 1.66 3.9 2.18 1.333 0.513 2.817 0.77 4.45 0.77v0c1.7 0 3.177-0.323 4.43-0.97 1.247-0.653 2.213-1.563 2.9-2.73 0.68-1.167 1.02-2.55 1.02-4.15v0-24.05zM152.3-26.75v0c2.333-0.033 4.327 0.457 5.98 1.47 1.647 1.02 2.903 2.48 3.77 4.38 0.867 1.9 1.283 4.183 1.25 6.85v0c0.033 2.667-0.377 4.957-1.23 6.87-0.847 1.92-2.077 3.387-3.69 4.4-1.62 1.02-3.58 1.53-5.88 1.53v0c-2.4 0-4.5-0.543-6.3-1.63-1.8-1.08-3.2-2.587-4.2-4.52-1-1.933-1.5-4.167-1.5-6.7v0c0-2.5 0.49-4.693 1.47-6.58 0.987-1.88 2.373-3.363 4.16-4.45 1.78-1.08 3.837-1.62 6.17-1.62zM153.65-22.35v0c-1.5 0-2.833 0.357-4 1.07-1.167 0.72-2.073 1.713-2.72 2.98-0.653 1.267-0.997 2.717-1.03 4.35v0c0.033 1.633 0.377 3.083 1.03 4.35 0.647 1.267 1.547 2.257 2.7 2.97 1.147 0.72 2.487 1.08 4.02 1.08v0c1.5 0 2.827-0.36 3.98-1.08 1.147-0.713 2.043-1.703 2.69-2.97 0.653-1.267 0.98-2.717 0.98-4.35v0c0-1.667-0.327-3.123-0.98-4.37-0.647-1.253-1.543-2.24-2.69-2.96-1.153-0.713-2.48-1.07-3.98-1.07zM177.15-15.2h16.25c-0.067-1.5-0.407-2.777-1.02-3.83-0.62-1.047-1.48-1.863-2.58-2.45-1.1-0.58-2.367-0.87-3.8-0.87v0c-1.6 0-2.993 0.367-4.18 1.1-1.18 0.733-2.103 1.757-2.77 3.07-0.667 1.32-1 2.863-1 4.63v0c0 1.9 0.36 3.55 1.08 4.95 0.713 1.4 1.713 2.483 3 3.25 1.28 0.767 2.753 1.15 4.42 1.15v0c2.967 0 5.467-1.05 7.5-3.15v0l3.05 3.05c-1.3 1.433-2.883 2.54-4.75 3.32-1.867 0.787-3.95 1.18-6.25 1.18v0c-2.733 0-5.117-0.567-7.15-1.7-2.033-1.133-3.617-2.71-4.75-4.73-1.133-2.013-1.7-4.353-1.7-7.02v0c0-2.667 0.567-5.01 1.7-7.03 1.133-2.013 2.717-3.587 4.75-4.72 2.033-1.133 4.367-1.717 7-1.75v0c3.133 0 5.65 0.64 7.55 1.92 1.9 1.287 3.25 3.097 4.05 5.43 0.8 2.333 1.083 5.1 0.85 8.3v0h-21.25zM223.75 0v-15c0-2.1-0.55-3.743-1.65-4.93-1.1-1.18-2.633-1.77-4.6-1.77v0c-2.3 0.067-4.107 0.917-5.42 2.55-1.32 1.633-1.98 3.65-1.98 6.05v0h-1.6c0-3.267 0.46-5.9 1.38-7.9 0.913-2 2.213-3.46 3.9-4.38 1.68-0.913 3.67-1.37 5.97-1.37v0c2.033 0 3.777 0.417 5.23 1.25 1.447 0.833 2.563 2.007 3.35 3.52 0.78 1.52 1.17 3.347 1.17 5.48v0 16.5zM243.1 0v-15c0-2.1-0.557-3.743-1.67-4.93-1.12-1.18-2.663-1.77-4.63-1.77v0c-2.267 0.067-4.05 0.917-5.35 2.55-1.3 1.633-1.95 3.65-1.95 6.05v0h-1.65c0-3.267 0.46-5.9 1.38-7.9 0.913-2 2.213-3.46 3.9-4.38 1.68-0.913 3.67-1.37 5.97-1.37v0c2.033 0 3.777 0.417 5.23 1.25 1.447 0.833 2.563 2.007 3.35 3.52 0.78 1.52 1.17 3.347 1.17 5.48v0 16.5zM204.4 0v-26.55h5.7v26.55zM258.7-15.2h16.25c-0.067-1.5-0.407-2.777-1.02-3.83-0.62-1.047-1.48-1.863-2.58-2.45-1.1-0.58-2.367-0.87-3.8-0.87v0c-1.6 0-2.99 0.367-4.17 1.1-1.187 0.733-2.113 1.757-2.78 3.07-0.667 1.32-1 2.863-1 4.63v0c0 1.9 0.36 3.55 1.08 4.95 0.713 1.4 1.713 2.483 3 3.25 1.28 0.767 2.753 1.15 4.42 1.15v0c2.967 0 5.467-1.05 7.5-3.15v0l3.05 3.05c-1.3 1.433-2.883 2.54-4.75 3.32-1.867 0.787-3.95 1.18-6.25 1.18v0c-2.733 0-5.117-0.567-7.15-1.7-2.033-1.133-3.617-2.71-4.75-4.73-1.133-2.013-1.7-4.353-1.7-7.02v0c0-2.667 0.567-5.01 1.7-7.03 1.133-2.013 2.717-3.587 4.75-4.72 2.033-1.133 4.367-1.717 7-1.75v0c3.133 0 5.65 0.64 7.55 1.92 1.9 1.287 3.25 3.097 4.05 5.43 0.8 2.333 1.083 5.1 0.85 8.3v0h-21.25zM305.65 0v-15c0-2.067-0.567-3.693-1.7-4.88-1.133-1.18-2.7-1.77-4.7-1.77v0c-2.367 0.033-4.223 0.867-5.57 2.5-1.353 1.633-2.03 3.667-2.03 6.1v0h-1.6c0-3.3 0.467-5.95 1.4-7.95 0.933-2 2.26-3.46 3.98-4.38 1.713-0.913 3.737-1.37 6.07-1.37v0c2.067 0 3.84 0.417 5.32 1.25 1.487 0.833 2.62 2.007 3.4 3.52 0.787 1.52 1.18 3.347 1.18 5.48v0 16.5zM285.95 0v-26.55h5.75v26.55zM325.85-32.85v24.45c0 1.433 0.25 2.407 0.75 2.92 0.5 0.52 1.2 0.78 2.1 0.78v0c0.6 0 1.223-0.1 1.87-0.3 0.653-0.2 1.363-0.5 2.13-0.9v0l1.45 4.15c-1.033 0.633-2.1 1.123-3.2 1.47-1.1 0.353-2.217 0.53-3.35 0.53v0c-1.333 0-2.567-0.26-3.7-0.78-1.133-0.513-2.043-1.337-2.73-2.47-0.68-1.133-1.02-2.6-1.02-4.4v0-25.45zM316.4-21.5v-4.1h17.3v4.1z" fill="black" fill-rule="nonzero" stroke="none" stroke-width="1" stroke-linecap="butt" stroke-linejoin="miter" stroke-miterlimit="10" stroke-dasharray="" stroke-dashoffset="0" font-family="none" font-weight="none" font-size="none" text-anchor="none" style="mix-blend-mode: normal" opacity="1"></path></g></svg></g></svg></g></svg></g></svg></g><g><svg viewBox="0 0 52.155879868339255 126.18358032662725" height="126.18358032662725" width="52.155879868339255"><g><svg xmlns="http://www.w3.org/2000/svg" xmlns:xlink="http://www.w3.org/1999/xlink" version="1.1" x="0" y="0" viewBox="31.4 4.999999999999998 37.199999999999996 90" enable-background="new 0 0 100 100" xml:space="preserve" height="126.18358032662725" width="52.155879868339255" class="icon-icon-0" data-fill-palette-color="accent" id="SvgjsSvg8599"><g fill="white"><path d="M63.5 28.3H55.4L50 36.3 44.6 28.3H36.5C33.7 28.3 31.4 30.6 31.4 33.4V56.8C31.4 59.6 33.7 61.9 36.5 61.9H38.8V89.9C38.8 92.7 41.1 95 43.9 95H44.9C47.7 95 50 92.7 50 89.9 50 92.7 52.3 95 55.1 95H56.1C58.9 95 61.2 92.7 61.2 89.9V61.9H63.5C66.3 61.9 68.6 59.6 68.6 56.8V33.4C68.6 30.6 66.3 28.3 63.5 28.3" fill="white"></path><circle cx="50" cy="14.6" r="9.6" fill="white"></circle></g></svg></g></svg></g></svg></g><defs><mask></mask></defs></svg><rect width="395.52" height="108.25899914529398" fill="black" stroke="none" visibility="hidden"></rect></g></mask><linearGradient x1="0" x2="1" y1="0.5" y2="0.5" id="4eb41cb9-5841-4fa1-8e22-ccbe11a88328"><stop stop-color="#f00b51" offset="0"></stop><stop stop-color="#730062" offset="1"></stop></linearGradient><rect width="395.52" height="108.25899914529398" fill="url(#4eb41cb9-5841-4fa1-8e22-ccbe11a88328)" mask="url(#4216deda-0534-4795-b8ae-a789bcd92807)" data-fill-palette-color="accent"></rect></svg><rect width="395.52" height="108.25899914529398" fill="none" stroke="none" visibility="hidden"></rect></g></svg></g></svg>